/* XPM */
static char *dummy[]={
"64 64 31 1",
"k c #004040",
"j c #005858",
"l c #007070",
"h c #008484",
"r c #009c9c",
"n c #00b4b4",
"m c #00cccc",
"i c #00e4e4",
"g c #2c2c2c",
"a c #383838",
"y c #483818",
"# c #484848",
". c #545454",
"z c #585400",
"x c #5c4020",
"f c #646464",
"B c #706c00",
"e c #707070",
"d c #7c7c7c",
"s c #80502c",
"b c #8c8c8c",
"c c #989898",
"w c #9c4c00",
"A c #9c9c00",
"v c #a85400",
"q c #a86840",
"t c #b45400",
"p c #b47044",
"o c #c87c4c",
"u c #cc6000",
"C c #fcfc54",
"............................#aaaaaa#............................",
"#bbbbbbcbcbcccccccccccccccbcbcbbbbdbdbdbdbddddddddededededfefefg",
"#bbbcbcbcbcccccccccccccbcbcbbbbbbbbdbddddddddddddddddeeeeeeeefeg",
".chibcbcbcccccccccccccbcbcbbbbdbdbdbdbdbddddddddededededeefejhfg",
".bjhcbcccccccccccccccbcbcbbbbbbbbdbddddddddddddddddeeeeeeeefkjeg",
".cbcccccccccccccccbcbcbbbbbbdbdbdbdbdbddddddddededededeefefefefg",
".ccccccccccccccccbcbcbbbbbbbbbbdbddddddddddddddddeeeeeeeeeefeffg",
".cccccccccccccccbcbcbbbbbbdbdbdbdbdbddddddddededededeeeefefefefg",
".ccccccccccccccbcbbbbbbbbbbbbdbddddddddddddddddedeeeeeeeefeffffg",
".cccccccccccbcbcbbbbbbbbdbdbdbdbdbddddddddededededeeeefefefefefg",
".chicccccccbcbcbbbbbbbbbbdbdbddddddddddddddddedeeeeeeeeeefefjlfg",
".cjhccccccbcbcbbbbbbdbdbdbdbdbdbddddddddddedededeeeefefefefekjfg",
".ccccccbcbcbbbbbbbbbbbbdbdbddddddddddddddddedeeeeeeeeeefeffffffg",
".cccccbcbcbbbbbbbbdbdbdbdbdbdbddddddddddededededeeeefefefefefefg",
".ccccbcbcbbbbbbbbbbbbdbdbddddddddddddddddedeeeeeeeeeefefeffffffg",
".cbcbcbbbbbbbbbbdbdbdbdbdbdbddddddddddededededeeeefefefefefffefg",
".bcbcbbbbbbbbbbbbbbdbdbddddddddddddddddedeeeeeeeeeeeefeffffffffg",
".chibbbbbbbbbbdbdbdbdbdbdbddddddddddededededeeeefefefefefeffjlfg",
".bjhbbbbbbbbbbbdbdbdbddddddddddddddddddeeeeeeeeeeeefefefffffkjfg",
".bbbbbbbbbdbdbdbdbdbdbdbddddddddddededededeeeeeefefefefefffefefg",
".bbbbbbbbbbbbdbdbdbddddddddddddddddddedeeeeeeeeeefefefffffffffeg",
".bbbbbbbdbdbdbdbdbdbdbddddddddddededededeeeeeefefefefefefffefefg",
".bbbbbbbbbbdbdbdbddddddddddddddddddedeeeeeeeeeeeefefffffffffffeg",
".bbbbbdbdbdbdbdbdbdbddddddddddededededeeeeeeeefefefefefffffefefg",
".blmbbbbbdbdbdbddddddddddddddddddedeeeeeeeeeeeefefefffffffffjheg",
".bkldbdbdbdbdbdbdbddddddddddddededededeeeeeefefefefefffffefekjfg",
".bbbbdbdbdbdbddddddddddddddddddedeeeeeeeeeeeeeefefffffffffffefeg",
".bdbdbdbdbdbdbdbddddddddddddededededeeeeeefefefefefefffffefefefg",
".bbdbdbdbdbddddddddddddddddddedeeeeeeeeeeeeeefefefffffffffffeeeg",
".bdbdbdbdbdbdbddddddddddddededededeeeeeeeefefefefefffffefefefefg",
".dbdbdbdbddddddddddddddddddededeeeeeeeeeeeefefefffffffffffefeeea",
".blndbdbdbdbddddddddddddededededeeeeeeeefefefefefefffffefefejhfa",
".dklbdbddddddddddddddddddddedeeeeeeeeeeeeeefefffffffffffffefkjea",
".bdbdbdbdbddddddddddddededededeeeeeeeefefefefefefffffffefefefefa",
".dbdbddddddddddddddddddddedeeeeeeeeeeeeeefefefffffffffffefefeeea",
".bdbdbdbddddddddddddededededeeeeeeeeeefefefefefffffffefefefefefa",
".dbddddddddddddddddddddedeeeeeeeeeeeeeeeefefffffffffffffefeeeeea",
".bdbdbddddddddddddedededededeeeeeeeefefefefefefffffffefefefefeea",
".dlndooooooooooooooooppppppppppppppppqqqqqqqqqqqqqqqqqqqppp.jrea",
".bklstuuuuuuuuuuvvvvvvvvvvvvvvvwwwwwwwwwwwwwwwwwwwwwwwwvvvqpkjea",
".ddddxxxxxxxxxxxxxxxxxxxxyyyyyyyyyyyyyyyyyyyyyyyyyyyyyyxxxx.feea",
".bdddd..zAB...################zAB##aaaaaaaaaaaaaaaaaazABa##ffeea",
".ddddddfzCBddddddededeeeeeeee#zCBeeeefefffffffffffff#zCBffeeeeea",
".dddddddfzddddededededeeeeeeee#zeefefefefefffffffffef#zffefeeeea",
".ddddddddddddddededeeeeeeeeeeeeeeeefefefffffffffffffffefeeeeeeea",
".djrddddddddededededeeeeeeeeeeeefefefefefffffffffefefefefefejrea",
".dkjdddddddddededeeeeeeeeeeeeeeeefefefffffffffffffffefefeeeekjea",
".dddddddddedededededeeeeeeeeeefefefefefefffffffffefefefefefeeeea",
".ddddddddddddedeeeeeeeeeeeeeeeeeefefefffffffffffffffefefeeeeeeea",
".dddddddedededededeeeeeeeeeefefefefefefffffffffffefefefefefeeeea",
".ddddddddddedeeeeeeeeeeeeeeeeeefefefffffffffffffffefefeeeeeeeeea",
"#dddddedededededeeeeeeeeeeeefefefefefefffffffffefefefefefeeeeeea",
"#djrdddddedeeeeeeeeeeeeeeeeeeeefefffffffffffffffffefefeeeeeejrea",
"#dkjedededededeeeeeeeeeeeefefefefefefffffffffffefefefefefeeekjea",
"#ddddddededeeeeeeeeeeeeeeeeeefefefffffffffffffffffefefeeeeeeeeea",
"#dddededededeeeeeeeeeeeeeefefefefefefffffffffefefefefefefeeeeeea",
"#ddddededeeeeeeeeeeeeeeeeeefefefffffffffffffffffefefeeeeeeeeeeea",
"#dededededeeeeeeeeeeeeeefefefefefefffffffffffefefefefefeeeeeeeea",
"#ddddedeeeeeeeeeeeeeeeeeeeefefefffffffffffffffffefefeeeeeeeeeeea",
"#djhedededeeeeeeeeeeeefefefefefefffffffffffffefefefefefeeeeejrea",
"#dkjdeeeeeeeeeeeeeeeeeeeefefefffffffffffffffffefefefeeeeeeeekjea",
"#dedededeeeeeeeeeeeeeefefefefefefffffffffffefefefefefefeeeeeeeea",
"#ededeeeeeeeeeeeeeeeeeeeefefefffffffffffffffffefeeeeeeeeeeeeeeea",
"aaaaaaaaaaaaaaaaaaaaaaaaaaaaaaaaaaaaaaaaaaaaaaaaaaaaaaaaaaaaaaaa"};
