/* XPM */
static char *dummy[]={
"64 64 8 1",
"a c #382f1c",
"e c #493f25",
"f c #4b4026",
". c #5b482e",
"d c #6e5537",
"c c #705638",
"b c #795e3e",
"# c #7d6140",
"................................................................",
"................................................................",
"....##########################################.......#########aa",
"...a###########################################.....##########aa",
"..###########################################bbb....bbbbbbbbb###",
"..##########################################bbbbb...bbbbbbbbbb##",
"..#######################bbbbbbbbbbbbbbbbb########..############",
"..################ccc###bbbbbbbbbbbbbbbbbbd#######..############",
"..c###############ccc#####################..####################",
"..ccc#############..cc####################..####################",
"eeecccc###########....#####bbbbbbbbbbbbbbb..####################",
"eeeecccc##########....####bbbbbbbbbbbbbbbb..d###################",
"eeeeff..bbbbbbbbbbbbffddbbbb##############eeee##################",
"eeeeff..bbbbbbbbbbbbffddbbb###############eeee##################",
"...a################eeee###################eee#################a",
"...a################eeee####################ee################aa",
"................................................................",
"................................................................",
"##############################a....a############################",
"##############################aa..aa############################",
"bbbb#############ccccccccccccccc..eeee..##bbbbbbbbbbbbbbbbbbbbbb",
"bbbbb###########cccccccccccccccc..eeee..##bbbbbbbbbbbbbbbbbbbbbb",
"###bbbbbbbbbbbdd..ffffffffffffee..eee###########################",
"####bbbbbbbbbbdd..ffffffffffffee..e#############################",
"##########################....ee..##############################",
"##########################....ee..##############################",
"##############bbbbbbbbbbbbbbbb##..eeee.#########################",
"##############bbbbbbbbbbbbbbb###..eeeee.########################",
"bbbbbbbbbbbbbbb#################..eeeeeeeeee.#######.#########bb",
"bbbbbbbbbbbbbb##################..eeeeeeeeee..######..######bbbb",
"###############################a..aa########bbbbbbbbffffbbbb##b#",
"##############################a....a########bbbbbbbbffffbbbbb###",
"................................................................",
"................................................................",
"...a#######eee####################ee#################cccccccccaa",
"...#########ee####################ee################ccccccccccaa",
"..##########..##########bbbbbbbbbbbbbbbbbbbbbbbbbbbbcc...eeeeeee",
"..###########.##########bbbbbbbbbbbbbbbbbbbbbbbbbbbb.....eeeeeee",
"..cccc##############################################....eeeeeeee",
"..cccccc#############################################...eeeeeeee",
"..eee.ccbbbbbbbbbbbbbbbbbbbbbbbbbbbbbbbbbbbbbbbbbb##############",
"..eee...bbbbbbbbbbbbbbbbbbbbbbbbbbbbbbbbbbbbbbbbbb##############",
"..eeee..##################cc####################################",
"..eeee.###################cc####################################",
"..############bbbbbbbbbbbb..ddbbbbbbbbbbddbbbbbbbbbbbbbbbbb#####",
"..############bbbbbbbbbbbb..ddbbbbbbbbbbddbbbbbbbbbbbbbbbbb#####",
"...a######################eeee##########ee####################aa",
"....######################eeee##########ee####################aa",
"................................................................",
"................................................................",
"##...e########################aa..a#############################",
"##..ee########################aa..##############################",
"..ffbbbbbbbbbbbbbbbbbbbbbbbb..ee..##############################",
"...fbbbbbbbbbbbbbbbbbbbbbb...eee..##############################",
"bb..ee#####################..eee..##bbbbbbbbbbbbbbbbbbbbbbbbbbbb",
"bb..e#######################eeee..##bbbbbbbbbbbbbbbbbbbbbbbbbbbb",
"################..##############..eeee..########################",
"################..##############..eeeee..#######################",
"####bbbbbbbbbbbb...bbbbbbbbbbb##..eeeee..#######..##########....",
"###bbbbbbbbbbbbb....bbbbbbbbb###..eeeeee..######..##########....",
"ffbbb###########ee..############..######bbbbbbff..bbbbbbbbbbb...",
"ffbb############eeee############..########bbbbff..bbbbbbbbbbbb..",
"ee##############eeee###########a..a###########eeeeee##########ee",
"ee##############eeee##########aa..aa##########eeeeee##########ee"};
